<svg width="24" height="25" viewBox="0 0 24 25" fill="none" xmlns="http://www.w3.org/2000/svg">
<path fill-rule="evenodd" clip-rule="evenodd" d="M5.3958 7.61377H18.8508C19.1981 7.61377 19.4795 7.93397 19.4795 8.32896C19.4795 8.40903 19.4677 8.48853 19.4446 8.56414L19.0381 9.89236C18.9501 10.1798 18.7118 10.3724 18.4443 10.3724H5.79905C5.53092 10.3724 5.29229 10.179 5.20477 9.89065L4.80151 8.56243C4.68816 8.18907 4.86234 7.78189 5.19057 7.65294C5.25659 7.62701 5.32595 7.61377 5.3958 7.61377ZM7.68452 12.2115H16.5621C16.9037 12.2115 17.1807 12.5316 17.1807 12.9266C17.1807 13.0124 17.1673 13.0975 17.1413 13.1778L16.7105 14.506C16.62 14.7851 16.3892 14.9701 16.1313 14.9701H8.09238C7.83052 14.9701 7.59702 14.7794 7.50942 14.4941L7.10157 13.166C6.98726 12.7937 7.15561 12.3848 7.47757 12.2527C7.54402 12.2254 7.61401 12.2115 7.68452 12.2115ZM10.4425 16.8092H13.8041C14.1454 16.8092 14.4221 17.1294 14.4221 17.5244C14.4221 17.594 14.4133 17.6632 14.396 17.7298L14.0518 19.058C13.9734 19.3606 13.7329 19.5678 13.46 19.5678H10.8239C10.5578 19.5678 10.3215 19.3706 10.2375 19.0782L9.85608 17.75C9.74844 17.3752 9.9237 16.9703 10.2475 16.8458C10.3104 16.8215 10.3762 16.8092 10.4425 16.8092Z" fill="#C6CDD3"/>
</svg>
