<svg width="20" height="21" viewBox="0 0 20 21" fill="none" xmlns="http://www.w3.org/2000/svg">
<path fill-rule="evenodd" clip-rule="evenodd" d="M13.6937 11.3227C13.3915 12.7432 12.2744 13.8603 10.8539 14.1624C8.14567 14.7384 5.79303 12.385 6.36912 9.67729C6.64155 8.39691 7.92815 7.11017 9.2085 6.83768C11.9162 6.26134 14.2698 8.61421 13.6937 11.3227ZM19.2682 9.04371L17.287 8.71317C17.1463 8.13774 16.9425 7.58711 16.678 7.07239C16.6669 7.05074 16.6695 7.02468 16.6848 7.00574L17.9279 5.46429C18.1977 5.13193 18.1854 4.65374 17.901 4.33299L17.1131 3.44618C16.8275 3.12574 16.3538 3.05798 15.9925 3.28624L14.2983 4.35133C13.5638 3.83815 12.7332 3.45723 11.8375 3.2328C11.8138 3.22683 11.7958 3.20745 11.7917 3.18326L11.4669 1.23121C11.3973 0.809458 11.0324 0.5 10.6039 0.5H9.41652C8.98897 0.5 8.62275 0.809458 8.55473 1.23121L8.22812 3.18399C8.22407 3.20811 8.20608 3.22744 8.18237 3.23338C7.45755 3.41503 6.77675 3.70173 6.1531 4.07656C6.13208 4.08919 6.10568 4.08826 6.08572 4.074L4.50727 2.9475C4.16002 2.69939 3.68303 2.73819 3.37998 3.04061L2.54112 3.88009C2.2387 4.18315 2.1999 4.66014 2.44867 5.00741L3.57782 6.58902C3.59205 6.60896 3.59303 6.63536 3.58043 6.65637C3.20925 7.27521 2.92553 7.95196 2.74407 8.67019C2.73807 8.69391 2.71875 8.71184 2.69465 8.71585L0.731167 9.04374C0.310067 9.11327 0 9.47829 0 9.90674V11.0933C0 11.5217 0.310067 11.8867 0.731167 11.9563L2.69458 12.2841C2.71872 12.2882 2.73807 12.3061 2.74403 12.3299C2.89165 12.9163 3.10192 13.4772 3.37833 13.9993C3.38985 14.0211 3.38742 14.0475 3.37193 14.0667L2.13492 15.5988C1.8661 15.9309 1.87738 16.4094 2.16178 16.7298L2.94912 17.6167C3.23475 17.9377 3.70865 18.0042 4.06997 17.7765L5.75468 16.7182C5.77533 16.7052 5.80165 16.7058 5.82185 16.7194C6.5409 17.2054 7.35205 17.5632 8.22148 17.7765L8.55477 19.7687C8.62278 20.1905 8.98897 20.5 9.41652 20.5H10.6039C11.0324 20.5 11.3973 20.1905 11.4669 19.7688L11.7923 17.8163C11.7963 17.7922 11.8143 17.7728 11.8381 17.7669C12.5535 17.5877 13.2255 17.3061 13.8432 16.9379C13.8643 16.9254 13.8905 16.9263 13.9104 16.9406L15.5562 18.116C15.9028 18.365 16.3801 18.3259 16.6828 18.0225L17.5221 17.1833C17.8241 16.8812 17.865 16.4044 17.6142 16.0565L16.4427 14.4139C16.4284 14.394 16.4275 14.3676 16.4401 14.3466C16.8123 13.7257 17.0976 13.0476 17.278 12.3262C17.284 12.3024 17.3033 12.2844 17.3275 12.2804L19.2688 11.9562C19.6912 11.8866 20 11.5216 20 11.0932V9.90668C19.9994 9.47829 19.6905 9.11327 19.2682 9.04371Z" fill="#C6CDD3"/>
</svg>
